<?xml version="1.0" encoding="UTF-8"?>
<svg id="Camada_1" data-name="Camada 1" xmlns="http://www.w3.org/2000/svg" viewBox="0 0 102 102">
  <defs>
    <style>
      .cls-1 {
        fill: #fcc200;
      }

      .cls-1, .cls-2, .cls-3, .cls-4 {
        fill-rule: evenodd;
      }

      .cls-2 {
        fill: #fff;
      }

      .cls-3 {
        fill: #577372;
      }

      .cls-5 {
        fill: #1d1d1b;
      }

      .cls-4 {
        fill: #5c719c;
      }
    </style>
  </defs>
  <path class="cls-4" d="M32.43,7.27c19.22-5.27,38.99,6.41,44.14,26.08,5.15,19.67-6.26,39.9-25.49,45.17-19.22,5.27-38.99-6.41-44.14-26.08C1.79,32.77,13.2,12.54,32.43,7.27h0Z"/>
  <path class="cls-1" d="M36.24,95.77h-5.37v-15.2c6.56,1.99,13.73,2.22,20.82.27,20.48-5.62,32.64-27.17,27.15-48.13-2.21-8.43-6.94-15.48-13.14-20.54h29.26v49.68l-58.73,33.91h0Z"/>
  <polygon class="cls-3" points="94.97 95.77 41.37 95.77 94.97 64.83 94.97 95.77 94.97 95.77"/>
  <polygon class="cls-2" points="49.25 27.95 50.06 29.24 51.51 28.84 50.56 30.03 51.38 31.31 49.99 30.76 49.05 31.95 49.13 30.42 47.73 29.87 49.18 29.48 49.25 27.95 49.25 27.95"/>
  <polygon class="cls-2" points="12.97 44.65 13.78 45.93 15.22 45.53 14.28 46.72 15.1 48 13.7 47.45 12.76 48.65 12.84 47.12 11.45 46.57 12.89 46.18 12.97 44.65 12.97 44.65"/>
  <polygon class="cls-2" points="19.03 57.32 19.85 58.61 21.29 58.21 20.35 59.4 21.16 60.68 19.77 60.13 18.83 61.32 18.91 59.79 17.51 59.24 18.96 58.85 19.03 57.32 19.03 57.32"/>
  <polygon class="cls-2" points="33.38 64.91 34.19 66.2 35.64 65.8 34.7 66.99 35.51 68.27 34.12 67.72 33.18 68.91 33.26 67.38 31.86 66.84 33.31 66.44 33.38 64.91 33.38 64.91"/>
  <polygon class="cls-2" points="45.59 58.05 46.41 59.34 47.85 58.94 46.91 60.13 47.73 61.41 46.33 60.86 45.39 62.05 45.47 60.52 44.07 59.97 45.52 59.58 45.59 58.05 45.59 58.05"/>
  <polygon class="cls-2" points="67.35 48.29 68.16 49.58 69.61 49.18 68.66 50.36 69.48 51.65 68.08 51.09 67.15 52.29 67.23 50.76 65.83 50.21 67.27 49.82 67.35 48.29 67.35 48.29"/>
  <polygon class="cls-2" points="69.9 51.05 70.65 52.24 71.99 51.87 71.12 52.97 71.87 54.16 70.58 53.65 69.71 54.75 69.79 53.33 68.5 52.83 69.83 52.47 69.9 51.05 69.9 51.05"/>
  <polygon class="cls-2" points="67.67 54.06 68.42 55.24 69.75 54.88 68.88 55.97 69.64 57.16 68.35 56.65 67.48 57.75 67.55 56.34 66.26 55.83 67.6 55.47 67.67 54.06 67.67 54.06"/>
  <polygon class="cls-2" points="63.68 60.35 64.43 61.54 65.77 61.17 64.9 62.27 65.65 63.45 64.36 62.94 63.49 64.04 63.57 62.63 62.28 62.13 63.61 61.76 63.68 60.35 63.68 60.35"/>
  <polygon class="cls-2" points="16.25 62.3 16.8 63.17 17.78 62.9 17.14 63.71 17.69 64.58 16.75 64.2 16.11 65.01 16.17 63.97 15.22 63.6 16.2 63.34 16.25 62.3 16.25 62.3"/>
  <polygon class="cls-2" points="27.14 59.31 27.69 60.19 28.67 59.92 28.03 60.72 28.59 61.59 27.64 61.22 27 62.02 27.06 60.99 26.11 60.62 27.09 60.35 27.14 59.31 27.14 59.31"/>
  <polygon class="cls-2" points="27.69 63.52 28.25 64.39 29.22 64.12 28.58 64.93 29.14 65.8 28.19 65.42 27.56 66.23 27.61 65.19 26.66 64.82 27.64 64.56 27.69 63.52 27.69 63.52"/>
  <polygon class="cls-2" points="47.16 51.3 47.71 52.17 48.69 51.9 48.05 52.7 48.6 53.57 47.65 53.2 47.02 54.01 47.07 52.97 46.13 52.6 47.11 52.33 47.16 51.3 47.16 51.3"/>
  <polygon class="cls-2" points="43.38 48.4 43.93 49.27 44.91 49 44.27 49.8 44.82 50.67 43.87 50.3 43.24 51.11 43.29 50.07 42.35 49.7 43.33 49.43 43.38 48.4 43.38 48.4"/>
  <polygon class="cls-2" points="29.58 47.12 30.13 47.99 31.11 47.72 30.47 48.53 31.03 49.39 30.08 49.02 29.44 49.83 29.5 48.79 28.55 48.42 29.53 48.16 29.58 47.12 29.58 47.12"/>
  <polygon class="cls-2" points="57.63 64.03 58.18 64.9 59.16 64.63 58.52 65.43 59.08 66.3 58.13 65.93 57.49 66.74 57.55 65.7 56.6 65.33 57.58 65.06 57.63 64.03 57.63 64.03"/>
  <polygon class="cls-2" points="65.89 57.26 66.44 58.14 67.42 57.87 66.78 58.67 67.33 59.54 66.39 59.17 65.75 59.97 65.8 58.94 64.86 58.57 65.84 58.3 65.89 57.26 65.89 57.26"/>
  <polygon class="cls-2" points="62.51 57.49 63.06 58.36 64.04 58.09 63.4 58.89 63.96 59.76 63.01 59.39 62.37 60.2 62.43 59.16 61.48 58.79 62.46 58.52 62.51 57.49 62.51 57.49"/>
  <polygon class="cls-2" points="58.69 59.66 59.24 60.53 60.22 60.26 59.58 61.07 60.13 61.94 59.18 61.56 58.55 62.37 58.6 61.33 57.66 60.96 58.64 60.7 58.69 59.66 58.69 59.66"/>
  <polygon class="cls-2" points="54.26 60.59 54.81 61.46 55.79 61.19 55.15 62 55.7 62.87 54.76 62.49 54.12 63.3 54.18 62.27 53.23 61.9 54.21 61.63 54.26 60.59 54.26 60.59"/>
  <polygon class="cls-2" points="71.73 47.51 72.21 48.27 73.07 48.03 72.51 48.73 72.99 49.49 72.17 49.17 71.61 49.87 71.66 48.97 70.83 48.65 71.69 48.41 71.73 47.51 71.73 47.51"/>
  <polygon class="cls-2" points="40.13 53.22 40.61 53.98 41.46 53.75 40.9 54.45 41.39 55.21 40.56 54.88 40.01 55.59 40.06 54.68 39.23 54.36 40.08 54.13 40.13 53.22 40.13 53.22"/>
  <polygon class="cls-2" points="64.32 64.3 64.8 65.06 65.65 64.83 65.09 65.53 65.58 66.29 64.75 65.96 64.2 66.66 64.25 65.76 63.42 65.44 64.27 65.2 64.32 64.3 64.32 64.3"/>
  <polygon class="cls-2" points="49.05 70.88 49.33 71.32 49.82 71.18 49.5 71.58 49.78 72.02 49.3 71.83 48.98 72.24 49.01 71.72 48.53 71.53 49.03 71.4 49.05 70.88 49.05 70.88"/>
  <polygon class="cls-2" points="43.29 55.17 43.57 55.61 44.06 55.47 43.74 55.88 44.02 56.31 43.54 56.13 43.22 56.53 43.25 56.01 42.77 55.82 43.27 55.69 43.29 55.17 43.29 55.17"/>
  <polygon class="cls-2" points="22.54 55.66 22.82 56.1 23.31 55.96 22.99 56.36 23.27 56.8 22.79 56.61 22.47 57.02 22.5 56.5 22.02 56.31 22.52 56.18 22.54 55.66 22.54 55.66"/>
  <polygon class="cls-2" points="49.02 39.93 49.43 40.57 50.15 40.37 49.68 40.97 50.08 41.61 49.39 41.33 48.92 41.93 48.96 41.17 48.26 40.89 48.98 40.7 49.02 39.93 49.02 39.93"/>
  
</svg>